<?xml version="1.0" standalone="no"?>
<!DOCTYPE svg PUBLIC "-//W3C//DTD SVG 20010904//EN"
 "http://www.w3.org/TR/2001/REC-SVG-20010904/DTD/svg10.dtd">
<svg version="1.0" xmlns="http://www.w3.org/2000/svg"
 width="285.000000pt" height="282.000000pt" viewBox="0 0 285.000000 282.000000"
 preserveAspectRatio="xMidYMid meet">
<style>
  @media (prefers-color-scheme: light) {
    .logo-fill { fill: #000000; }
  }
  @media (prefers-color-scheme: dark) {
    .logo-fill { fill: #ffffff; }
  }
</style>

<g transform="translate(0.000000,282.000000) scale(0.100000,-0.100000)"
class="logo-fill" stroke="none">
<path d="M1275 2713 c-643 -83 -1118 -602 -1142 -1248 -18 -454 208 -893 587
-1140 218 -142 437 -207 700 -208 168 0 282 19 425 70 379 137 697 468 808
843 41 138 48 182 54 331 9 247 -28 429 -132 635 -193 386 -536 641 -955 709
-86 13 -269 18 -345 8z m85 -321 l0 -199 -112 -7 c-62 -3 -160 -17 -218 -30
-58 -13 -106 -23 -108 -21 -6 6 70 149 111 209 61 90 154 178 227 214 106 53
100 63 100 -166z m215 169 c109 -51 211 -162 300 -326 49 -89 55 -111 28 -100
-44 16 -217 46 -313 53 l-105 7 -3 198 c-3 227 -8 217 93 168z m-595 -83 c-56
-74 -97 -142 -141 -231 -24 -48 -46 -87 -49 -87 -3 0 -37 32 -75 71 l-70 70
30 25 c84 70 289 193 323 194 8 0 1 -17 -18 -42z m953 1 c87 -44 213 -127 243
-160 18 -19 16 -21 -55 -92 -53 -52 -75 -68 -79 -57 -26 74 -124 238 -188 318
-15 17 -21 32 -14 32 6 0 49 -19 93 -41z m-1301 -336 c38 -37 68 -71 68 -75 0
-4 -48 -32 -107 -62 -60 -31 -141 -81 -182 -111 -40 -31 -75 -54 -78 -52 -10
10 112 228 164 295 32 39 60 72 62 72 3 0 36 -30 73 -67z m1722 -19 c60 -81
136 -214 151 -262 5 -18 -9 -11 -77 38 -46 33 -129 83 -186 111 l-103 52 28
31 c68 76 108 116 115 116 5 0 37 -39 72 -86z m-994 -193 l0 -140 60 22 60 22
0 118 0 117 58 0 c92 0 299 -37 424 -77 29 -9 79 -201 98 -375 16 -153 28
-137 -107 -140 l-116 -3 -12 -35 c-7 -19 -15 -45 -19 -57 l-7 -23 135 0 c127
0 136 -1 136 -19 0 -93 -32 -302 -62 -398 l-10 -33 -131 136 -131 136 -17 -48
c-10 -27 -18 -57 -18 -67 -1 -11 44 -67 101 -128 55 -60 99 -112 96 -115 -15
-14 -317 -64 -390 -64 -27 0 -28 2 -28 55 0 48 -8 71 -57 168 l-58 112 -3
-169 -2 -169 -73 7 c-105 10 -330 51 -346 63 -7 5 442 473 453 473 3 0 38 -65
78 -145 81 -160 76 -158 113 -41 25 76 203 592 229 665 9 24 14 46 12 49 -4 4
-94 -27 -186 -63 -107 -43 -600 -225 -609 -225 -27 0 -6 -20 47 -43 146 -64
222 -101 222 -109 0 -5 -85 -96 -189 -201 -103 -106 -203 -209 -221 -230 -18
-21 -37 -36 -43 -34 -22 7 -64 222 -69 352 l-3 80 149 5 149 5 -126 58 c-70
31 -138 57 -151 57 -23 0 -24 2 -20 63 10 143 46 341 66 362 6 7 16 2 29 -14
11 -14 60 -67 109 -118 l89 -93 61 23 60 22 -131 140 -132 140 44 13 c78 22
252 50 322 51 l67 1 0 -139z m-645 -18 c-17 -43 -47 -216 -51 -298 -9 -151 17
-135 -210 -135 l-196 0 7 33 c28 129 176 281 372 382 77 40 88 42 78 18z
m1504 -25 c166 -91 275 -191 331 -304 53 -109 61 -104 -163 -104 l-193 0 -12
123 c-7 67 -21 164 -32 216 -22 103 -23 111 -14 111 4 0 41 -19 83 -42z
m-1565 -565 c3 -21 6 -59 6 -84 0 -48 32 -240 49 -296 12 -41 7 -41 -72 -2
-194 98 -349 257 -372 382 l-7 37 195 0 194 0 7 -37z m1926 12 c0 -42 -59
-145 -119 -208 -67 -71 -152 -133 -255 -187 -86 -45 -86 -45 -62 50 16 61 46
282 46 336 l0 34 195 0 195 0 0 -25z m-1987 -505 c59 -30 107 -58 107 -61 0
-3 -30 -38 -68 -79 l-68 -73 -41 49 c-67 80 -193 295 -193 329 0 3 35 -21 78
-53 42 -31 126 -82 185 -112z m1882 81 c-60 -120 -172 -281 -196 -281 -7 0
-132 126 -136 138 -2 4 48 33 110 64 61 32 144 82 182 111 39 30 71 51 73 46
2 -4 -13 -39 -33 -78z m-1417 -235 c70 -14 166 -28 215 -31 l87 -7 0 -200 0
-199 -22 6 c-141 40 -307 208 -388 390 -12 28 -24 53 -27 58 -6 10 -6 10 135
-17z m862 19 c0 -13 -67 -136 -107 -198 -83 -124 -209 -228 -305 -251 l-28 -6
0 198 0 199 123 12 c67 6 160 20 207 30 98 21 110 23 110 16z m-1102 -64 c29
-70 94 -180 153 -256 27 -36 47 -65 43 -65 -4 0 -48 20 -98 44 -103 49 -259
160 -254 180 3 14 119 145 129 146 4 0 16 -22 27 -49z m1306 -25 l66 -74 -47
-39 c-27 -22 -69 -54 -95 -71 -52 -35 -209 -114 -215 -108 -3 2 20 36 50 75
31 39 79 120 109 180 29 61 56 110 59 111 4 0 36 -33 73 -74z"/>
</g>
</svg>
